<?xml version="1.0" encoding="utf-8"?>
<svg viewBox="0 0 48 48" xmlns="http://www.w3.org/2000/svg">
  <path fill="#0077d4" d="M 1.402 0.052 L 21.65 0.052 C 22.395 0.052 23 0.657 23 1.402 L 23 21.65 C 23 22.395 22.395 23 21.65 23 L 1.402 23 C 0.657 23 0.052 22.395 0.052 21.65 L 0.052 1.402 C 0.052 0.657 0.657 0.052 1.402 0.052 Z" style="" transform="matrix(1, 0, 0, 1, 0, -4.440892098500626e-16)"/>
  <path fill="#0077d4" d="M 25.042 21.607 L 25.042 1.403 C 25.042 0.657 25.647 0.052 26.393 0.052 L 46.597 0.052 C 47.343 0.052 47.948 0.657 47.948 1.403 L 47.948 21.607 C 47.948 22.353 47.343 22.958 46.597 22.958 L 26.393 22.958 C 25.646 22.958 25.042 22.354 25.042 21.607 Z" style="" transform="matrix(1, 0, 0, 1, 0, -4.440892098500626e-16)"/>
  <path fill="#0077d4" d="M 1.402 25 L 21.65 25 C 22.395 25 23 25.605 23 26.35 L 23 46.598 C 23 47.343 22.395 47.948 21.65 47.948 L 1.402 47.948 C 0.657 47.948 0.052 47.343 0.052 46.598 L 0.052 26.35 C 0.052 25.605 0.657 25 1.402 25 Z" style="" transform="matrix(1, 0, 0, 1, 0, -4.440892098500626e-16)"/>
  <path fill="#0077d4" d="M 25 46.598 L 25 26.35 C 25 25.605 25.605 25 26.35 25 L 46.598 25 C 47.343 25 47.948 25.605 47.948 26.35 L 47.948 46.598 C 47.948 47.343 47.343 47.948 46.598 47.948 L 26.35 47.948 C 25.605 47.948 25 47.343 25 46.598 Z" style="" transform="matrix(1, 0, 0, 1, 0, -4.440892098500626e-16)"/>
</svg>